<?xml version="1.0" encoding="UTF-8"?>
<svg id="Layer_2" data-name="Layer 2" xmlns="http://www.w3.org/2000/svg" viewBox="0 0 412.95 150.36">
  <defs>
    <style>
      .cls-1 {
        letter-spacing: -.04em;
      }

      .cls-2 {
        font-size: 12px;
      }

      .cls-2, .cls-3, .cls-4, .cls-5 {
        fill: #000;
      }

      .cls-2, .cls-4, .cls-5 {
        font-family: Helvetica-Bold, Helvetica;
        font-weight: 700;
      }

      .cls-3 {
        font-family: Helvetica-Oblique, Helvetica;
        font-size: 13px;
        font-style: oblique;
      }

      .cls-6 {
        letter-spacing: .03em;
      }

      .cls-7 {
        letter-spacing: .04em;
      }

      .cls-8 {
        letter-spacing: .04em;
      }

      .cls-9 {
        letter-spacing: -.06em;
      }

      .cls-10 {
        letter-spacing: .02em;
      }

      .cls-4 {
        font-size: 28px;
      }

      .cls-11 {
        letter-spacing: -.02em;
      }

      .cls-12 {
        fill: #00ff0d;
        stroke: #00d063;
        stroke-miterlimit: 10;
      }

      .cls-5 {
        font-size: 15px;
      }
    </style>
  </defs>
  <g>
    <g>
      <path class="cls-12" d="M407.13,120.76c-8.79-13.04-10.64-27.21-.96-40.25,3.32-.03-3.27,7.42-4.12,13.79-2.16,16.19,8.25,24.9,7.88,26.23-.25.9-2.67.2-2.8.23Z"/>
      <path class="cls-12" d="M403.98,66.08c-6.59-10.75-5.75-25.61,2.58-35.88.29.13,1.83-1.97,1.4.22-.69,3.54-10.44,13.28-4.01,32.39.65,1.93,4.18,2.42.02,3.28Z"/>
      <path class="cls-12" d="M7.36,29.86c-.07-.13-3.07-.66-.36-2.19,1.96-1.1,26.98-3.5,26.85-25.44,5.22,10.82-9.37,24.68-26.49,27.63Z"/>
    </g>
    <g>
      <path class="cls-12" d="M374.18,13.21c-1.9-3.76-4.72-19.22-5.67-9.61-60.3.51-120.69,1.72-181,1.76l.69-1.1c-8.39-4.71-12.6.04-15.79-.62-.7-.14-.02-1.23-.71-1.31-1.45-.17-28.05.25-29.46.51-.28.05-1.46,2.89-4.2,1.76-.81-.34.1-1.46-.71-1.75-1.71-.6-34.05.55-39.29.1-3.07,1.88,4.79-.2,4.57,1.74-21.28-.19-42.55-.57-63.85-.28-.08-.64-2.04-2.27-2.12-3.06,17.86-1.85,290.04.68,337.1-.83.76.33.22,4.89,3.23,11.37l-2.8,1.32Z"/>
      <path class="cls-12" d="M370.13,148.85l-331.14.81c-1.07-1.61-.05-1.75-.02-2.63q165.22-.62,330.43-1.25c0,.15,1.16.99.72,3.06Z"/>
      <path class="cls-12" d="M30.47,134.37c-6.92-6.3-12.81-9.21-24.63-11.53,12.18-10.77,12.28-32.18-2.37-41.78-.71-.46-2.16-1.43-2.82-1.74,2.02-4.48-1.44-4.74.65-7.88.2-.31.45-.59.7-.88.2-.24,4.1-2.21,5.59-4.17,6.44-8.5,8.49-17.7,5.44-26.92,2.56-1.55-4.29-7.95-3.56-8.52.71-.56,3.43.01,4.21-.23,9.55,9.82,8.01,27.43-.47,37.41-2.54,2.99-9.78,6.98-9.77,7.46.02,2.42,29.36,12.28,11.51,44.82-11.74.89,8.15,2.68,15.52,13.96Z"/>
      <path class="cls-12" d="M405.03,121.2c-33.28,6.44-28.26,25.32-29.3,26.98-.53.85-1.91.53-2.8.66,1.36-24.41,27.27-26.99,27.88-28.73.14-.41-3.25-2.54-4.94-5.02l2.46.43c-4.93-10.08-7.3-20.99-1.25-31.28,1.74-2.96,8.03-6.97,5.56-8.11,3.37-3.42-1.26-2.01-7.07-9.17l3.16.87c1.86-.75-9.33-8.32-4.03-26.9.95-3.32,5.47-7.01,4.14-10.29-.96-2.37-4.53-1.67-7.39-3.04-7.74-3.73-14.29-8.46-17.28-14.4l2.8-1.32c4.4,9.48,11.87,14.26,26.77,17-17.7,32.43,5.64,43.75,5.2,46.15-.44,2.41-24.35,15.26-3.92,46.17Z"/>
      <path class="cls-12" d="M406.18,80.51c-9.68,13.04-7.83,27.2.96,40.25-.69.12-1.38.3-2.1.44-20.43-30.91,3.48-43.75,3.92-46.17.44-2.39-22.9-13.71-5.2-46.15,4.74.87,1.99.94,2.81,1.31-8.33,10.28-9.17,25.14-2.58,35.88,3.24,5.28,8.38,8.01,8.47,8.51.08.45-5.42,4.77-6.28,5.92Z"/>
      <path class="cls-12" d="M38.97,147.04c-.03.87-1.05,1.02.02,2.63-7.63,1.28-.99-3.78-8.52-15.29-7.37-11.28-27.27-13.07-15.52-13.96,16.08,5.32,24.47,15.36,24.02,26.63Z"/>
      <path class="cls-12" d="M372.93,148.84c-.72.1-1.86-.04-2.81,0,.44-2.07-.72-2.91-.72-3.06,0-.79,2.21-7.87,2.75-8.98,6.7-13.75,23.76-16.44,24.44-17.56.18-.3-3.36-4.39-4.25-5.9h2.1c.06.09.94,1.05,1.41,1.74,1.69,2.48,5.09,4.61,4.94,5.02-.61,1.74-26.52,4.32-27.88,28.73Z"/>
      <path class="cls-12" d="M13.68,30.72c-.78.24-3.49-.33-4.21.23-.73.57,6.12,6.97,3.56,8.52-1.5-4.56-4-6.5-5.67-9.61,17.12-2.95,31.71-16.81,26.49-27.63-.33-1.34,1.24-.72,2.8-.88.09.78,2.04,2.42,2.12,3.06,1.26,9.75-11.22,21.97-25.09,26.31Z"/>
      <path class="cls-12" d="M402.64,76.14c-2.06,2.09-5.76,4.15-7.68,6.58l-1.41-1.31c2.67-3.39,7.83-6.45,7.67-7.24-.46-2.31-27.98-15.03-5.89-43.3-15.47-3.48-27.8-17.6-26.83-27.28.96-9.61,3.78,5.85,5.67,9.61,2.99,5.94,9.54,10.67,17.28,14.4,2.85,1.38,6.43.67,7.39,3.04-11.32,10.8-12.65,24.79-3.28,36.32,5.81,7.16,10.44,5.75,7.07,9.17Z"/>
      <path class="cls-12" d="M187.51,5.35c-28.31.02-56.59-.42-84.89-.67.22-1.94-7.65.14-4.57-1.74,5.24.45,37.58-.7,39.29-.1.81.29-.1,1.41.71,1.75,2.74,1.13,3.91-1.71,4.2-1.76,1.41-.26,28.01-.68,29.46-.51.69.08,0,1.17.71,1.31,3.19.65,7.4-4.09,15.79.62l-.69,1.1Z"/>
      <path class="cls-12" d="M395.87,115.1c-.47-.7-1.36-1.66-1.41-1.75-6.24-10.15-7.36-20.65.51-30.63,1.92-2.43,5.62-4.49,7.68-6.58,2.46,1.14-3.82,5.14-5.56,8.11-6.05,10.29-3.68,21.2,1.25,31.28l-2.46-.43Z"/>
      <path class="cls-12" d="M395.57,66.97c-9.37-11.54-8.04-25.52,3.28-36.32,1.33,3.28-3.2,6.97-4.14,10.29-5.3,18.58,5.88,26.15,4.03,26.9l-3.16-.87Z"/>
      <g>
        <path class="cls-12" d="M187.51,5.35c60.3-.04,120.69-1.25,181-1.76-.96,9.68,11.36,23.8,26.83,27.28-22.09,28.27,5.42,40.99,5.89,43.3.16.79-5,3.85-7.67,7.24-9.41,11.92-8.4,19.79-1.2,31.94.89,1.5,4.43,5.59,4.25,5.9-.68,1.12-17.74,3.81-24.44,17.56-.54,1.11-2.74,8.18-2.75,8.98q-165.22.62-330.43,1.25c.45-11.27-7.94-21.31-24.02-26.63,17.85-32.54-11.49-42.4-11.51-44.82,0-.48,7.24-4.48,9.77-7.46,8.47-9.97,10.02-27.59.47-37.41,13.87-4.34,26.35-16.56,25.09-26.31,21.29-.29,42.56.09,63.85.28"/>
        <path class="cls-12" d="M394.46,113.35h-2.1c-7.2-12.15-8.21-20.01,1.2-31.94l1.41,1.31c-7.87,9.97-6.75,20.47-.51,30.63Z"/>
      </g>
    </g>
  </g>
  <text class="cls-5" transform="translate(132.36 88.62) scale(1.14 1)"><tspan x="0" y="0">22-24TH</tspan><tspan class="cls-1" x="58.36" y="0"> </tspan><tspan x="61.98" y="0">AUGUST</tspan></text>
  <text class="cls-2" transform="translate(183.31 108.92) scale(1.14 1)"><tspan x="0" y="0">2024</tspan></text>
  <text class="cls-4" transform="translate(92.99 63.8) scale(1.14 1)"><tspan class="cls-8" x="0" y="0">3 D</tspan><tspan class="cls-9" x="46.51" y="0">A</tspan><tspan class="cls-10" x="65.14" y="0">Y</tspan><tspan class="cls-8" x="84.31" y="0" xml:space="preserve"> TICKET</tspan></text>
  <text class="cls-3" transform="translate(321.56 140.83) scale(1.14 1)"><tspan class="cls-6" x="0" y="0">800k</tspan><tspan class="cls-11" x="30.01" y="0">r</tspan><tspan class="cls-7" x="34.08" y="0">,-</tspan></text>
</svg>